<svg width="500" height="500" viewBox="0 0 500 500" fill="none" xmlns="http://www.w3.org/2000/svg">
<circle cx="250" cy="250" r="250" fill="#0086FE"/>
<g filter="url(#filter0_d_324_7)">
<path d="M348.252 104.2C355.692 105.64 361.212 108.16 364.812 111.76C368.652 115.36 370.572 119.56 370.572 124.36C370.572 132.28 368.292 138.04 363.732 141.64C359.412 145.24 352.452 146.68 342.852 145.96C321.252 144.28 304.332 143.2 292.092 142.72C280.092 142 264.252 141.52 244.572 141.28C235.692 185.44 227.532 229.84 220.092 274.48C217.452 290.8 214.692 309.76 211.812 331.36C208.932 352.72 207.012 370 206.052 383.2C205.572 390.16 202.692 395.56 197.412 399.4C192.132 403 185.772 404.8 178.332 404.8C170.412 404.8 164.292 402.88 159.972 399.04C155.652 395.2 153.492 390.16 153.492 383.92C153.492 378.16 154.332 368.68 156.012 355.48C157.932 342.04 160.092 328 162.492 313.36C165.132 298.72 167.172 286 168.612 275.2C171.252 256.96 174.252 238.84 177.612 220.84C180.972 202.84 184.332 185.8 187.692 169.72C188.412 166.12 189.252 162.04 190.212 157.48C191.172 152.68 192.252 147.4 193.452 141.64C169.932 142.36 151.452 144.28 138.012 147.4C124.572 150.52 114.972 154.96 109.212 160.72C103.692 166.24 100.932 173.44 100.932 182.32C100.932 190.48 103.332 198.28 108.132 205.72C109.092 207.4 109.572 209.2 109.572 211.12C109.572 215.68 106.812 220 101.292 224.08C96.0122 227.92 90.4922 229.84 84.7322 229.84C80.6522 229.84 77.2922 228.64 74.6522 226.24C69.8522 222.16 65.8922 216.4 62.7722 208.96C59.6522 201.28 58.0922 192.64 58.0922 183.04C58.0922 162.64 64.6922 146.32 77.8922 134.08C91.3322 121.6 111.612 112.48 138.732 106.72C166.092 100.96 201.132 98.08 243.852 98.08C270.252 98.08 291.252 98.56 306.852 99.52C322.692 100.48 336.492 102.04 348.252 104.2Z" fill="white"/>
</g>
<g filter="url(#filter1_d_324_7)">
<path d="M448.546 203.52C453.837 204.544 457.762 206.336 460.322 208.896C463.053 211.456 464.418 214.443 464.418 217.856C464.418 223.488 462.797 227.584 459.554 230.144C456.482 232.704 451.533 233.728 444.706 233.216C429.346 232.021 417.314 231.253 408.61 230.912C400.077 230.4 388.813 230.059 374.818 229.888C368.503 261.291 362.701 292.864 357.41 324.608C355.533 336.213 353.57 349.696 351.522 365.056C349.474 380.245 348.109 392.533 347.426 401.92C347.085 406.869 345.037 410.709 341.282 413.44C337.527 416 333.005 417.28 327.714 417.28C322.082 417.28 317.73 415.915 314.658 413.184C311.586 410.453 310.05 406.869 310.05 402.432C310.05 398.336 310.647 391.595 311.842 382.208C313.207 372.651 314.743 362.667 316.45 352.256C318.327 341.845 319.778 332.8 320.802 325.12C322.679 312.149 324.813 299.264 327.202 286.464C329.591 273.664 331.981 261.547 334.37 250.112C334.882 247.552 335.479 244.651 336.162 241.408C336.845 237.995 337.613 234.24 338.466 230.144C321.741 230.656 308.599 232.021 299.042 234.24C289.485 236.459 282.658 239.616 278.562 243.712C274.637 247.637 272.674 252.757 272.674 259.072C272.674 264.875 274.381 270.421 277.794 275.712C278.477 276.907 278.818 278.187 278.818 279.552C278.818 282.795 276.855 285.867 272.93 288.768C269.175 291.499 265.25 292.864 261.154 292.864C258.253 292.864 255.863 292.011 253.986 290.304C250.573 287.403 247.757 283.307 245.538 278.016C243.319 272.555 242.21 266.411 242.21 259.584C242.21 245.077 246.903 233.472 256.29 224.768C265.847 215.893 280.269 209.408 299.554 205.312C319.01 201.216 343.927 199.168 374.306 199.168C393.079 199.168 408.013 199.509 419.106 200.192C430.37 200.875 440.183 201.984 448.546 203.52Z" fill="white"/>
</g>
<defs>
<filter id="filter0_d_324_7" x="54.0923" y="98.08" width="320.48" height="314.72" filterUnits="userSpaceOnUse" color-interpolation-filters="sRGB">
<feFlood flood-opacity="0" result="BackgroundImageFix"/>
<feColorMatrix in="SourceAlpha" type="matrix" values="0 0 0 0 0 0 0 0 0 0 0 0 0 0 0 0 0 0 127 0" result="hardAlpha"/>
<feOffset dy="4"/>
<feGaussianBlur stdDeviation="2"/>
<feComposite in2="hardAlpha" operator="out"/>
<feColorMatrix type="matrix" values="0 0 0 0 0 0 0 0 0 0 0 0 0 0 0 0 0 0 0.25 0"/>
<feBlend mode="normal" in2="BackgroundImageFix" result="effect1_dropShadow_324_7"/>
<feBlend mode="normal" in="SourceGraphic" in2="effect1_dropShadow_324_7" result="shape"/>
</filter>
<filter id="filter1_d_324_7" x="238.21" y="199.168" width="230.208" height="226.112" filterUnits="userSpaceOnUse" color-interpolation-filters="sRGB">
<feFlood flood-opacity="0" result="BackgroundImageFix"/>
<feColorMatrix in="SourceAlpha" type="matrix" values="0 0 0 0 0 0 0 0 0 0 0 0 0 0 0 0 0 0 127 0" result="hardAlpha"/>
<feOffset dy="4"/>
<feGaussianBlur stdDeviation="2"/>
<feComposite in2="hardAlpha" operator="out"/>
<feColorMatrix type="matrix" values="0 0 0 0 0 0 0 0 0 0 0 0 0 0 0 0 0 0 0.25 0"/>
<feBlend mode="normal" in2="BackgroundImageFix" result="effect1_dropShadow_324_7"/>
<feBlend mode="normal" in="SourceGraphic" in2="effect1_dropShadow_324_7" result="shape"/>
</filter>
</defs>
</svg>
