<svg width="694" height="694" viewBox="0 0 694 694" fill="none" xmlns="http://www.w3.org/2000/svg">
<path fill-rule="evenodd" clip-rule="evenodd" d="M381.734 162.684C374.581 159.844 365.512 159.844 347.375 159.844C329.237 159.844 320.169 159.844 313.016 162.684C303.478 166.47 295.9 173.731 291.949 182.87C290.146 187.043 289.44 191.895 289.164 198.972C288.758 209.373 283.192 219 273.785 224.204C264.378 229.408 252.894 229.214 243.292 224.35C236.757 221.041 232.019 219.2 227.346 218.611C217.111 217.32 206.759 219.977 198.569 226C192.426 230.516 187.892 238.042 178.823 253.093C169.755 268.144 165.221 275.67 164.21 283.026C162.862 292.834 165.636 302.753 171.921 310.602C174.79 314.184 178.821 317.195 185.078 320.962C194.276 326.501 200.195 335.936 200.194 346.344C200.194 356.753 194.275 366.186 185.078 371.723C178.82 375.493 174.788 378.505 171.919 382.087C165.634 389.935 162.861 399.853 164.208 409.661C165.219 417.017 169.753 424.544 178.821 439.594C187.89 454.645 192.424 462.172 198.567 466.687C206.758 472.709 217.109 475.367 227.344 474.076C232.017 473.487 236.754 471.646 243.288 468.338C252.892 463.474 264.377 463.28 273.784 468.483C283.191 473.689 288.758 483.316 289.164 493.719C289.44 500.794 290.146 505.647 291.949 509.819C295.9 518.958 303.478 526.22 313.016 530.006C320.169 532.844 329.237 532.844 347.375 532.844C365.512 532.844 374.581 532.844 381.734 530.006C391.272 526.22 398.849 518.958 402.799 509.819C404.604 505.647 405.31 500.794 405.587 493.717C405.992 483.316 411.557 473.689 420.964 468.483C430.371 463.278 441.856 463.474 451.46 468.338C457.994 471.646 462.73 473.485 467.403 474.075C477.638 475.367 487.99 472.709 496.18 466.687C502.324 462.17 506.857 454.645 515.926 439.593C524.995 424.542 529.528 417.017 530.54 409.661C531.887 399.853 529.113 389.933 522.83 382.085C519.959 378.503 515.928 375.491 509.67 371.723C500.474 366.186 494.555 356.751 494.555 346.343C494.555 335.934 500.474 326.503 509.67 320.966C515.93 317.196 519.961 314.186 522.831 310.602C529.115 302.754 531.889 292.835 530.542 283.027C529.53 275.671 524.997 268.146 515.928 253.094C506.859 238.043 502.326 230.518 496.182 226.001C487.992 219.979 477.64 217.321 467.405 218.612C462.732 219.202 457.994 221.042 451.462 224.351C441.858 229.215 430.373 229.409 420.966 224.205C411.559 219.001 405.992 209.373 405.585 198.971C405.309 191.894 404.604 187.042 402.799 182.87C398.849 173.731 391.272 166.47 381.734 162.684ZM347.375 402.294C379.622 402.294 405.762 377.246 405.762 346.344C405.762 315.443 379.622 290.394 347.375 290.394C315.127 290.394 288.986 315.443 288.986 346.344C288.986 377.246 315.127 402.294 347.375 402.294Z" fill="#ECECEC"/>
<path d="M46.875 346.845H0C0.00632633 274.831 22.4258 204.604 64.1481 145.908C105.87 87.2117 164.827 42.9562 232.838 19.2812C300.848 -4.39385 374.542 -6.31445 443.694 13.7858C512.845 33.8861 574.027 75.0107 618.75 131.454V79.657H665.625V243.72H501.562V196.845H606.672C580.317 151.263 542.442 113.411 496.844 87.0835C451.246 60.7564 399.528 46.8796 346.875 46.8445C181.453 46.8445 46.875 181.423 46.875 346.845ZM646.875 346.845C646.875 512.266 512.297 646.845 346.875 646.845C294.222 646.809 242.504 632.933 196.906 606.606C151.308 580.278 113.433 542.426 87.0781 496.845H192.188V449.97H28.125V614.032H75V562.235C119.723 618.678 180.905 659.803 250.056 679.903C319.208 700.004 392.902 698.083 460.912 674.408C528.923 650.733 587.88 606.477 629.602 547.781C671.324 489.085 693.744 418.858 693.75 346.845H646.875Z" fill="#ECECEC"/>
</svg>
