<svg width="800" height="800" viewBox="0 0 800 800" fill="none" xmlns="http://www.w3.org/2000/svg">
<g clip-path="url(#clip0_334_7)">
<path d="M366.667 33.3333C366.667 14.9238 381.59 0 400 0C418.41 0 433.333 14.9238 433.333 33.3333V100C433.333 118.409 418.41 133.333 400 133.333C381.59 133.333 366.667 118.409 366.667 100V33.3333Z" fill="#ECECEC"/>
<path fill-rule="evenodd" clip-rule="evenodd" d="M600 400C600 510.457 510.457 600 400 600C289.543 600 200 510.457 200 400C200 289.543 289.543 200 400 200C510.457 200 600 289.543 600 400ZM268.722 400C268.722 472.503 327.497 531.277 400 531.277C472.503 531.277 531.277 472.503 531.277 400C531.277 327.497 472.503 268.722 400 268.722C327.497 268.722 268.722 327.497 268.722 400Z" fill="#ECECEC"/>
<path d="M682.843 117.157C669.823 104.14 648.72 104.14 635.703 117.157L588.56 164.298C575.543 177.315 575.543 198.421 588.56 211.438C601.58 224.456 622.683 224.456 635.703 211.438L682.843 164.298C695.86 151.28 695.86 130.175 682.843 117.157Z" fill="#ECECEC"/>
<path d="M33.3333 433.333C14.9238 433.333 0 418.41 0 400C0 381.59 14.9238 366.667 33.3333 366.667H100C118.409 366.667 133.333 381.59 133.333 400C133.333 418.41 118.409 433.333 100 433.333H33.3333Z" fill="#ECECEC"/>
<path d="M117.158 117.157C104.14 130.175 104.14 151.28 117.158 164.298L164.298 211.438C177.316 224.456 198.421 224.456 211.439 211.438C224.456 198.421 224.456 177.315 211.439 164.298L164.298 117.157C151.281 104.14 130.175 104.14 117.158 117.157Z" fill="#ECECEC"/>
<path d="M366.667 700C366.667 681.59 381.59 666.667 400 666.667C418.41 666.667 433.333 681.59 433.333 700V766.667C433.333 785.076 418.41 800 400 800C381.59 800 366.667 785.076 366.667 766.667V700Z" fill="#ECECEC"/>
<path d="M211.438 588.563C198.421 575.543 177.315 575.543 164.298 588.563L117.158 635.703C104.14 648.72 104.14 669.827 117.158 682.843C130.175 695.86 151.281 695.86 164.298 682.843L211.438 635.703C224.456 622.683 224.456 601.58 211.438 588.563Z" fill="#ECECEC"/>
<path d="M700 433.333C681.59 433.333 666.667 418.41 666.667 400C666.667 381.59 681.59 366.667 700 366.667H766.667C785.076 366.667 800 381.59 800 400C800 418.41 785.076 433.333 766.667 433.333H700Z" fill="#ECECEC"/>
<path d="M588.56 588.563C575.543 601.58 575.543 622.683 588.56 635.703L635.703 682.843C648.72 695.86 669.823 695.86 682.843 682.843C695.86 669.827 695.86 648.72 682.843 635.703L635.703 588.563C622.683 575.543 601.58 575.543 588.56 588.563Z" fill="#ECECEC"/>
</g>
<defs>
<clipPath id="clip0_334_7">
<rect width="800" height="800" fill="white"/>
</clipPath>
</defs>
</svg>
